<svg width="24" height="24" viewBox="0 0 24 24" fill="none" xmlns="http://www.w3.org/2000/svg">
    <mask id="mask0_760_8728" style="mask-type:alpha" maskUnits="userSpaceOnUse" x="0" y="0" width="24" height="24">
        <rect width="24" height="24" fill="#D9D9D9" />
    </mask>
    <g mask="url(#mask0_760_8728)">
        <path
            d="M20.6275 4H3.37255C3.00853 4 2.65941 4.14461 2.40201 4.40201C2.14461 4.65941 2 5.00853 2 5.37255V19.4902C2 19.8542 2.14461 20.2033 2.40201 20.4607C2.65941 20.7181 3.00853 20.8627 3.37255 20.8627H20.6275C20.9915 20.8627 21.3406 20.7181 21.598 20.4607C21.8554 20.2033 22 19.8542 22 19.4902V5.37255C22 5.00853 21.8554 4.65941 21.598 4.40201C21.3406 4.14461 20.9915 4 20.6275 4ZM3.37255 5.17647H20.6275C20.6795 5.17647 20.7293 5.19713 20.7661 5.2339C20.8029 5.27067 20.8235 5.32055 20.8235 5.37255V16.5L17.6765 13.3529C17.4178 13.0979 17.0691 12.9549 16.7059 12.9549C16.3426 12.9549 15.994 13.0979 15.7353 13.3529L13.7059 15.3824C13.6884 15.4014 13.6672 15.4166 13.6436 15.4269C13.62 15.4373 13.5944 15.4427 13.5686 15.4427C13.5428 15.4427 13.5173 15.4373 13.4937 15.4269C13.47 15.4166 13.4488 15.4014 13.4314 15.3824L9.04902 11C8.79036 10.7449 8.44169 10.602 8.07843 10.602C7.71517 10.602 7.3665 10.7449 7.10784 11L3.17647 14.9314V5.37255C3.17647 5.32055 3.19713 5.27067 3.2339 5.2339C3.27067 5.19713 3.32055 5.17647 3.37255 5.17647ZM20.6275 19.6863H3.37255C3.32055 19.6863 3.27067 19.6656 3.2339 19.6288C3.19713 19.5921 3.17647 19.5422 3.17647 19.4902V16.598L7.94118 11.8333C7.95863 11.8143 7.97984 11.7991 8.00347 11.7887C8.02709 11.7784 8.05262 11.773 8.07843 11.773C8.10424 11.773 8.12977 11.7784 8.1534 11.7887C8.17703 11.7991 8.19824 11.8143 8.21569 11.8333L12.598 16.2157C12.8567 16.4707 13.2054 16.6137 13.5686 16.6137C13.9319 16.6137 14.2806 16.4707 14.5392 16.2157L16.5686 14.1863C16.5861 14.1673 16.6073 14.1521 16.6309 14.1417C16.6545 14.1313 16.6801 14.1259 16.7059 14.1259C16.7317 14.1259 16.7572 14.1313 16.7808 14.1417C16.8045 14.1521 16.8257 14.1673 16.8431 14.1863L20.8235 18.1667V19.4902C20.8235 19.5422 20.8029 19.5921 20.7661 19.6288C20.7293 19.6656 20.6795 19.6863 20.6275 19.6863ZM14.049 10.3824C13.9577 10.2911 13.8855 10.1825 13.8367 10.063C13.7879 9.94344 13.7634 9.81538 13.7647 9.68627C13.7647 9.42626 13.868 9.17689 14.0519 8.99303C14.2357 8.80917 14.4851 8.70588 14.7451 8.70588C15.0051 8.70588 15.2545 8.80917 15.4383 8.99303C15.6222 9.17689 15.7255 9.42626 15.7255 9.68627C15.7255 9.94629 15.6222 10.1957 15.4383 10.3795C15.2545 10.5634 15.0051 10.6667 14.7451 10.6667C14.616 10.668 14.4879 10.6435 14.3684 10.5947C14.2489 10.5458 14.1403 10.4737 14.049 10.3824Z"
            fill="white" />
    </g>
</svg>